 <svg  version="1.0" xmlns="http://www.w3.org/2000/svg"  width="300.000000pt" height="103.000000pt" viewBox="0 0 300.000000 103.000000"  preserveAspectRatio="xMidYMid meet">  <g transform="translate(0.000000,103.000000) scale(0.100000,-0.100000)" fill="#ffffff" stroke="none"> <path d="M341 909 c-14 -5 -31 -7 -39 -4 -17 6 -72 -31 -72 -50 0 -8 -9 -16 -20 -20 -27 -9 -63 -62 -66 -99 -2 -17 -5 -42 -7 -56 -4 -27 30 -83 70 -113 23 -18 25 -18 74 14 l51 32 21 -26 c20 -24 24 -25 42 -12 19 15 19 16 -8 41 -27 25 -35 44 -18 44 5 0 11 -6 13 -12 4 -10 10 -10 33 0 36 17 44 7 16 -19 -25 -23 -16 -44 15 -37 14 3 22 -5 31 -27 10 -25 12 -27 12 -8 1 17 5 21 18 16 14 -6 15 -1 10 38 -6 40 -6 42 8 25 16 -21 21 -106 6 -106 -5 0 -4 -20 1 -45 6 -28 6 -60 1 -83 -8 -34 -12 -37 -41 -36 -36 2 -41 -6 -13 -23 10 -7 27 -34 36 -62 9 -27 25 -62 37 -76 28 -36 12 -47 -18 -12 -13 15 -24 25 -24 21 0 -3 -7 -1 -15 6 -20 17 -21 -9 0 -36 8 -10 15 -30 15 -43 0 -22 3 -23 50 -19 40 4 55 11 75 34 37 43 40 62 13 83 l-23 19 -3 -44 c-2 -24 -7 -44 -12 -44 -12 0 -47 52 -71 105 -18 42 -19 48 -6 63 9 9 17 35 19 57 l3 40 18 -32 c22 -40 74 -101 98 -113 26 -14 89 24 89 55 0 60 -11 83 -44 89 -18 4 -44 19 -58 34 -36 39 -80 119 -84 153 -6 46 1 43 145 -53 14 -10 34 -18 44 -18 9 0 17 -4 17 -10 0 -5 -9 -10 -20 -10 -22 0 -28 -28 -9 -47 13 -13 100 77 119 125 15 38 10 48 -18 33 -35 -19 -56 -11 -87 30 l-30 40 -98 -5 c-84 -4 -99 -3 -104 11 -4 10 2 23 16 35 30 24 52 23 58 -2 7 -26 23 -26 23 0 0 20 -27 40 -53 40 -8 0 -27 -10 -42 -22 -18 -14 -44 -22 -72 -24 -44 -2 -45 -1 -39 27 9 49 56 105 56 68 0 -6 9 -8 23 -4 l22 7 -22 -21 c-13 -12 -23 -32 -22 -44 l0 -22 9 23 c10 24 30 34 98 49 40 10 65 2 42 -12 -14 -9 -13 -25 2 -25 7 0 27 -14 45 -32 40 -39 54 -31 22 13 -13 18 -22 45 -21 59 2 27 1 27 -70 33 -48 4 -75 3 -79 -5 -11 -18 -83 15 -87 41 -3 17 -10 21 -40 20 -20 0 -48 -5 -61 -10z m65 -40 c9 -15 -7 -29 -42 -35 -57 -10 -79 -28 -115 -98 -20 -38 -34 -77 -32 -87 6 -23 -10 -25 -28 -3 -15 18 -13 92 3 111 6 7 8 13 5 13 -18 0 96 92 119 96 16 3 31 7 33 10 9 8 50 4 57 -7z m14 -58 c-5 -11 -10 -33 -10 -50 0 -36 -10 -39 -35 -11 -10 11 -26 20 -36 20 -10 0 -21 5 -24 10 -3 6 4 10 17 10 13 0 39 9 58 19 44 25 43 25 30 2z m-76 -56 c45 -19 47 -36 2 -28 -24 4 -35 1 -39 -11 -3 -8 -2 -18 3 -21 6 -4 10 -1 10 4 0 6 9 11 20 11 22 0 27 -15 8 -27 -22 -14 -98 -30 -98 -21 0 5 11 25 24 45 14 19 22 42 19 49 -7 18 6 18 51 -1z m136 -53 c0 -18 -22 -28 -52 -24 l-31 5 24 13 c27 15 59 18 59 6z m247 -45 c6 -12 18 -39 27 -60 l16 -38 -22 12 c-13 6 -42 27 -66 47 -30 24 -57 36 -88 40 -58 6 -56 19 4 27 26 4 52 8 57 9 21 6 63 -16 72 -37z m-387 -6 c0 -13 -91 -73 -98 -66 -12 11 23 59 48 66 37 10 50 10 50 0z m266 -148 c21 -42 39 -63 64 -75 47 -23 60 -35 60 -59 0 -17 -3 -18 -20 -9 -23 12 -24 11 -10 -24 5 -14 7 -26 4 -26 -18 0 -64 38 -94 77 -29 38 -36 57 -40 110 -3 34 -3 63 1 63 3 0 19 -26 35 -57z"/> <path d="M1075 665 l0 -85 44 0 c37 0 42 2 36 18 -19 46 -18 52 9 52 16 0 26 -5 26 -15 0 -8 -4 -15 -10 -15 -5 0 -10 -9 -10 -20 0 -17 7 -20 43 -20 l42 0 0 85 0 85 -42 0 c-36 0 -43 -3 -43 -20 0 -11 5 -20 10 -20 6 0 10 -7 10 -15 0 -9 -10 -15 -26 -15 -17 0 -24 4 -21 13 21 57 21 57 -25 57 l-43 0 0 -85z"/> <path d="M1460 730 c0 -11 5 -20 11 -20 8 0 10 -19 6 -65 l-6 -65 41 0 c40 0 40 0 34 31 -3 17 -6 56 -6 85 l0 54 -40 0 c-33 0 -40 -3 -40 -20z"/> <path d="M1755 698 c4 -29 8 -58 10 -65 2 -7 0 -15 -5 -18 -6 -4 -10 -13 -10 -21 0 -10 13 -14 46 -14 40 0 45 2 38 18 -5 9 -9 46 -10 82 l0 65 -38 3 -37 3 6 -53z"/> <path d="M1924 729 c-23 -26 -5 -66 36 -81 17 -5 30 -16 30 -24 0 -18 -20 -17 -44 1 -24 18 -36 11 -36 -21 0 -22 3 -24 53 -24 98 0 115 65 30 109 -33 17 -36 20 -19 27 13 5 21 3 24 -4 2 -7 12 -12 23 -12 13 0 19 7 19 24 0 22 -4 24 -49 24 -36 1 -54 -4 -67 -19z"/> <path d="M2282 738 c-7 -7 -12 -18 -12 -25 0 -7 -4 -13 -10 -13 -14 0 -13 -26 2 -50 10 -15 10 -22 0 -32 -26 -26 -13 -38 38 -38 38 0 50 4 50 15 0 9 -7 18 -15 21 -8 4 -15 13 -15 20 0 8 7 17 15 20 20 8 19 24 -2 40 -17 13 -17 14 5 20 12 3 22 13 22 20 0 18 -61 19 -78 2z"/> <path d="M2695 740 c-10 -16 4 -30 29 -30 28 0 36 8 29 26 -6 16 -49 19 -58 4z"/> <path d="M1294 685 c-18 -15 -17 -15 21 -14 57 1 65 0 65 -11 0 -5 -15 -10 -34 -10 -44 0 -70 -24 -56 -51 9 -16 22 -19 85 -19 68 0 75 2 75 20 0 11 -4 20 -10 20 -5 0 -10 15 -10 34 0 22 -6 36 -16 40 -30 11 -100 6 -120 -9z m82 -56 c10 -17 -13 -36 -27 -22 -12 12 -4 33 11 33 5 0 12 -5 16 -11z"/> <path d="M1579 684 c-12 -14 -9 -16 30 -13 29 3 46 0 48 -8 3 -9 -7 -13 -30 -13 -40 0 -61 -20 -52 -50 6 -18 15 -20 86 -20 62 0 79 3 79 14 0 8 -4 18 -10 21 -5 3 -10 19 -10 35 0 36 -23 50 -83 50 -29 0 -49 -6 -58 -16z m81 -64 c0 -19 -20 -27 -33 -13 -8 7 11 33 24 33 5 0 9 -9 9 -20z"/> <path d="M2079 684 c-12 -14 -9 -16 30 -13 29 3 46 0 48 -8 3 -9 -7 -13 -30 -13 -40 0 -61 -20 -52 -50 6 -18 15 -20 87 -20 72 0 79 2 73 18 -4 9 -10 31 -12 47 -3 17 -12 36 -21 43 -23 18 -107 16 -123 -4z"/> <path d="M2374 685 c-18 -15 -16 -16 25 -13 55 4 70 -19 15 -24 -44 -4 -65 -28 -45 -52 18 -22 161 -23 161 -2 0 8 -4 18 -10 21 -5 3 -10 19 -10 34 0 15 -5 32 -12 39 -17 17 -100 15 -124 -3z m76 -65 c0 -11 -7 -20 -15 -20 -15 0 -21 21 -8 33 12 13 23 7 23 -13z"/> <path d="M2540 680 c0 -11 5 -20 10 -20 6 0 10 -9 10 -19 0 -11 -4 -23 -10 -26 -5 -3 -10 -13 -10 -21 0 -10 13 -14 50 -14 37 0 50 4 50 14 0 8 -4 18 -10 21 -17 11 -11 24 15 31 18 4 25 13 25 30 0 26 -18 31 -39 12 -11 -10 -14 -10 -18 0 -3 6 -20 12 -39 12 -27 0 -34 -4 -34 -20z"/> <path d="M2680 678 c0 -10 5 -18 10 -18 6 0 10 -9 10 -20 0 -11 -4 -20 -10 -20 -5 0 -10 -9 -10 -20 0 -17 7 -20 45 -20 33 0 45 4 45 14 0 8 -5 18 -11 21 -6 4 -9 23 -7 42 3 34 2 35 -34 38 -31 1 -38 -1 -38 -17z"/> <path d="M1691 503 c-22 -18 -22 -18 -3 -43 14 -18 17 -31 11 -48 -18 -49 -94 -54 -125 -7 -15 23 -15 27 0 50 9 14 30 28 47 32 31 6 50 23 25 23 -25 0 -70 -20 -93 -42 -48 -45 -13 -128 53 -128 85 0 163 106 121 164 -12 17 -14 17 -36 -1z"/> <path d="M2089 472 c-4 -60 12 -95 33 -74 8 8 8 15 -2 27 -11 13 -10 18 4 28 16 12 16 14 -8 25 -22 10 -26 9 -27 -6z"/> <path d="M1949 472 c-22 -3 -26 -8 -25 -32 1 -16 6 -34 13 -41 18 -18 34 -1 27 28 -5 17 -3 24 3 20 6 -4 13 0 17 8 6 18 -1 22 -35 17z"/> <path d="M2268 472 c-22 -3 -28 -9 -28 -27 0 -33 10 -55 25 -55 21 0 28 19 15 35 -10 12 -9 15 3 15 15 0 31 27 19 33 -4 1 -19 1 -34 -1z"/> <path d="M1752 404 c0 -49 3 -64 14 -64 9 0 14 11 14 31 0 23 4 30 14 26 20 -8 38 17 34 45 -2 19 -10 23 -39 25 l-36 2 -1 -65z"/> <path d="M1845 450 c-9 -29 3 -60 24 -60 26 0 32 10 16 27 -18 17 -19 33 -4 33 5 0 7 -4 4 -10 -3 -5 1 -10 9 -10 9 0 16 9 16 20 0 15 -7 20 -29 20 -21 0 -32 -6 -36 -20z"/> <path d="M2002 458 c-17 -17 -15 -68 2 -68 8 0 17 6 20 13 5 10 7 10 12 0 3 -7 12 -13 20 -13 14 0 19 35 8 64 -7 19 -45 21 -62 4z"/> <path d="M2156 448 c-30 -42 21 -79 58 -42 18 17 19 24 10 48 -9 23 -50 20 -68 -6z"/> </g> </svg> 